PathFileType	4	(X/Y/Z)	C:\Users\Basilio\Documents\Thesis Gigler\squatting_fais\c3dfiles\077\SJ_pre2\markers_experimental.trc
DataRate	CameraRate	NumFrames	NumMarkers	Units	OrigDataRate	OrigDataStartFrame	OrigNumFrames
200.000000	200.000000	4	60	mm	200.000000	0	1263
Frame#	Time	FHD			LBHD			RBHD			C7			T10			CLAV			LSHO			LUUPA			LMUPA			LDUPA			LLEP			LMEP			LRAD			LUL			LRFIN			RSHO			RUPA1			RMUPA			RDUPA			RLEP			RMEP			RRAD			RUL			RUFIN			LASI			RASI			USACR			LSACR			RSACR			LTHI1			LTHI2			LTHI3			LTHI4			LLFC			LMFC			LTIB1			LTIB2			LTIB3			LTIB4			LLMAL			LHEE			LMT1			LMT2			LMT5			RTHI			RTHI2			RTHI3			RTHI4			RLFC			RMFC			RTIB1			RTIB2			RTIB3			RTIB4			RLMAL			RMMAL			RHEE			RMT1			RMT2			RMT5			
		X1	Y1	Z1	X2	Y2	Z2	X3	Y3	Z3	X4	Y4	Z4	X5	Y5	Z5	X6	Y6	Z6	X7	Y7	Z7	X8	Y8	Z8	X9	Y9	Z9	X10	Y10	Z10	X11	Y11	Z11	X12	Y12	Z12	X13	Y13	Z13	X14	Y14	Z14	X15	Y15	Z15	X16	Y16	Z16	X17	Y17	Z17	X18	Y18	Z18	X19	Y19	Z19	X20	Y20	Z20	X21	Y21	Z21	X22	Y22	Z22	X23	Y23	Z23	X24	Y24	Z24	X25	Y25	Z25	X26	Y26	Z26	X27	Y27	Z27	X28	Y28	Z28	X29	Y29	Z29	X30	Y30	Z30	X31	Y31	Z31	X32	Y32	Z32	X33	Y33	Z33	X34	Y34	Z34	X35	Y35	Z35	X36	Y36	Z36	X37	Y37	Z37	X38	Y38	Z38	X39	Y39	Z39	X40	Y40	Z40	X41	Y41	Z41	X42	Y42	Z42	X43	Y43	Z43	X44	Y44	Z44	X45	Y45	Z45	X46	Y46	Z46	X47	Y47	Z47	X48	Y48	Z48	X49	Y49	Z49	X50	Y50	Z50	X51	Y51	Z51	X52	Y52	Z52	X53	Y53	Z53	X54	Y54	Z54	X55	Y55	Z55	X56	Y56	Z56	X57	Y57	Z57	X58	Y58	Z58	X59	Y59	Z59	X60	Y60	Z60	

1	0	-178.0626525878907	1821.672119140625	-918.6204223632815	-320.9854431152344	1718.205444335938	-991.4732666015627	-328.9810180664063	1712.735961914063	-846.1258544921877	-388.4206848144532	1574.515747070313	-925.5129394531252	-407.9477844238282	1241.407592773438	-925.7241821289065	-222.8999328613282	1520.269897460938	-923.4776611328127	-287.0659484863282	1547.608520507813	-1116.779052734375	-331.8749694824219	1402.256591796875	-1277.87646484375	-294.7469177246094	1366.36767578125	-1281.5751953125	-341.3992004394532	1349.88330078125	-1320.6455078125	-333.2401123046876	1287.768310546875	-1352.435546875	-408.5259704589845	1263.216064453125	-1315.734741210938	-296.2288513183594	1057.316162109375	-1153.486450195313	-248.7579040527344	1019.64892578125	-1206.714233398438	-244.9166717529297	1051.17138671875	-1100.823974609375	-263.5147705078126	1547.568115234375	-731.3738403320314	-331.4248962402344	1412.70361328125	-559.8442382812501	-302.9431457519532	1371.314575195313	-558.1655883789064	-345.1512145996094	1357.592529296875	-517.4763183593751	-346.6978759765626	1291.987548828125	-489.1958618164064	-427.6653747558595	1274.857421875	-523.2694702148439	-325.7247619628907	1062.648315429688	-677.2491455078126	-266.8104858398438	1036.261352539063	-630.6193237304689	-268.9159545898438	1068.488891601563	-725.4108276367189	-209.3905639648438	1037.29052734375	-1056.7783203125	-219.9884490966797	1052.391845703125	-775.4834594726565	-418.7810974121095	1128.730346679688	-922.2453613281252	-422.1799926757814	1097.67724609375	-951.3442382812502	-428.0396423339845	1096.908325195313	-895.9594726562502	-316.7263488769532	837.5157470703127	-1136.080078125	-299.6011352539063	755.4498901367189	-1146.33056640625	-252.2973937988282	749.9113769531251	-1141.062622070313	-337.6931762695313	707.9298095703126	-1138.57763671875	-331.8225708007813	558.8325195312501	-1136.443481445313	-311.6197509765626	511.2228393554689	-1013.820617675781	-292.3192749023438	336.2091369628907	-1129.196899414063	-334.9603881835938	306.5235595703126	-1202.867309570313	-297.8735656738282	298.9285583496094	-1175.872192382813	-294.3996887207032	213.2410278320313	-1164.723388671875	-355.5752563476563	101.5867538452149	-1222.268798828125	-396.099822998047	45.32991409301759	-1171.906005859375	-178.3255462646485	59.54336547851564	-1197.160888671875	-186.8737030029297	60.8037796020508	-1238.619995117188	-309.3535461425782	100.6965942382813	-1144.768798828125	-367.1432800292969	732.8723144531251	-697.3637084960939	-337.7983093261719	673.5563354492189	-683.8843994140626	-304.0455627441407	670.9624023437501	-682.8294677734376	-372.2519836425782	601.0418090820314	-698.3643798828126	-376.3096313476563	533.6672973632814	-691.9453125000001	-313.9085998535157	497.3408203125001	-802.5493164062502	-318.6127319335938	406.4652404785157	-668.1193847656251	-382.5333862304688	327.8141174316407	-637.3970947265626	-335.6522521972657	323.9816589355469	-643.7031860351564	-315.1439208984376	275.0402221679688	-669.0603637695314	-375.2128295898438	97.52844238281253	-613.4276733398439	-321.0473632812501	94.82494354248048	-689.5636596679689	-412.9044799804689	44.58926391601563	-677.0664062500001	-201.2102050781251	60.39397048950197	-595.0454101562501	-216.0718231201172	61.44121551513673	-560.8479614257814	-245.7926483154297	41.58259201049805	-518.1143188476564	
2	0.005	-178.2946319580078	1821.7890625	-918.6705322265627	-321.1332092285157	1718.227294921875	-991.4544677734377	-329.1739501953126	1712.7451171875	-846.1381835937502	-388.5736694335939	1574.516479492188	-925.5279541015627	-407.9885559082032	1241.433349609375	-925.716735839844	-223.0405426025391	1520.327270507813	-923.4724121093752	-287.2308349609376	1547.609252929688	-1116.755981445313	-331.9869079589844	1402.214111328125	-1277.8544921875	-294.8987426757813	1366.348999023438	-1281.562744140625	-340.0204162597657	1349.672607421875	-1320.54052734375	-333.3450622558594	1287.758911132813	-1352.3955078125	-408.6423339843751	1263.18212890625	-1315.685302734375	-296.3596801757813	1057.303955078125	-1153.439453125	-248.8506622314454	1019.5830078125	-1206.727172851563	-244.9103240966797	1051.110961914063	-1100.79541015625	-263.7614440917969	1547.571166992188	-731.3836059570314	-331.6513061523438	1412.68505859375	-559.8709106445314	-303.1844177246094	1371.340698242188	-558.2142333984376	-345.4059143066407	1357.631591796875	-517.4809570312501	-346.9315185546876	1292.018798828125	-489.2279663085939	-427.8625488281251	1274.845336914063	-523.3533935546876	-325.8785095214844	1062.672119140625	-677.2321777343751	-266.9710998535157	1036.28759765625	-630.6124877929689	-269.0806579589844	1068.47119140625	-725.3948974609376	-209.5389404296876	1037.206787109375	-1056.763916015625	-220.1224822998047	1052.388305664063	-775.462097167969	-418.9292602539064	1128.810791015625	-922.2154541015627	-422.3047180175782	1097.793823242188	-951.340270996094	-428.2385559082032	1097.014038085938	-895.965515136719	-316.8683471679688	837.4847412109377	-1136.087890625	-299.7501831054688	755.4558105468751	-1146.3046875	-252.4711456298829	749.8701782226564	-1141.0712890625	-337.8208312988282	707.9094848632814	-1138.541259765625	-331.9423217773438	558.8393554687501	-1136.450317382813	-311.7079772949219	511.2104797363282	-1013.824829101563	-292.3757019042969	336.2467651367188	-1129.130126953125	-335.0467529296876	306.5312805175782	-1202.9052734375	-297.9499816894532	298.8908996582032	-1175.8916015625	-294.4678649902344	213.2288360595704	-1164.6982421875	-355.5884399414063	101.6261444091797	-1222.28173828125	-396.1368713378907	45.31953048706055	-1171.900756835938	-178.314926147461	59.60315704345705	-1197.175659179688	-186.8668365478516	60.84111785888673	-1238.611450195313	-309.3360900878907	100.6882705688477	-1144.77978515625	-367.3404541015626	732.8855590820314	-697.3621826171876	-337.9455566406251	673.5661621093751	-683.8673706054689	-304.1159973144532	670.8559570312501	-682.8389282226564	-372.3652038574219	601.0173950195314	-698.3696289062501	-376.4027404785157	533.6638183593751	-691.9426269531251	-313.9077148437501	497.3369445800782	-802.5535888671877	-318.6975402832032	406.4665527343751	-668.1062011718751	-382.6178283691407	327.8064880371094	-637.3930053710939	-335.7212219238282	324.0080566406251	-643.6565551757814	-315.2292785644532	275.0401000976563	-669.0850219726564	-375.2233276367188	97.53945159912112	-613.4099121093751	-321.0561828613282	94.80020141601564	-689.5708007812501	-412.913055419922	44.59502029418946	-677.0864868164064	-201.2386322021485	60.40224075317384	-595.0327148437501	-216.0729522705079	61.44540405273439	-560.8245849609376	-245.8110961914063	41.58010864257813	-518.1295166015626	
3	0.01	-178.515121459961	1821.82421875	-918.681823730469	-321.1894531250001	1718.272338867188	-991.5208129882815	-329.3710632324219	1712.778442382813	-846.1854248046877	-388.7063598632814	1574.506591796875	-925.512390136719	-408.0557861328126	1241.460327148438	-925.763854980469	-223.1577301025391	1520.36767578125	-923.4234619140627	-287.4050903320313	1547.60009765625	-1116.751342773438	-332.1181335449219	1402.206420898438	-1277.864501953125	-295.1482238769532	1366.339721679688	-1281.533569335938	-341.6723022460938	1349.828369140625	-1320.552612304688	-333.4962768554688	1287.705078125	-1352.3740234375	-408.7282104492189	1263.15234375	-1315.633422851563	-296.4623718261719	1057.193359375	-1153.46826171875	-248.855697631836	1019.604187011719	-1206.713012695313	-245.1229400634766	1051.071533203125	-1100.816650390625	-263.9300537109376	1547.588623046875	-731.3896484375001	-331.8756408691407	1412.712890625	-559.8762207031251	-303.3918457031251	1371.39697265625	-558.2699584960939	-345.6275939941407	1357.631225585938	-517.5322875976564	-347.1764221191407	1292.036376953125	-489.2420043945314	-428.0268859863282	1274.837036132813	-523.3795166015626	-326.0420227050782	1062.666748046875	-677.2314453125001	-267.0968017578126	1036.352661132813	-630.6127929687501	-269.1278381347657	1068.525634765625	-725.3958740234376	-209.6431579589844	1037.112548828125	-1056.740478515625	-220.3128204345704	1052.337280273438	-775.4824829101565	-419.024383544922	1128.862670898438	-922.2526855468752	-422.4082946777345	1097.827514648438	-951.3496093750002	-428.3989257812501	1097.115112304688	-895.9441528320315	-317.0729064941407	837.4865722656252	-1136.031127929688	-299.9171447753907	755.4346313476564	-1146.316162109375	-252.6217346191407	749.8643188476564	-1141.062133789063	-337.9982604980469	707.4580078125001	-1138.566040039063	-332.0500488281251	558.8242797851564	-1136.398681640625	-311.7651062011719	511.2060852050782	-1013.810974121094	-292.4710083007813	336.2463378906251	-1129.190185546875	-335.0948181152344	306.4999084472657	-1202.864990234375	-298.0684814453126	298.8770141601563	-1175.8818359375	-294.4647827148438	213.2255554199219	-1164.709106445313	-355.5588684082032	101.5811462402344	-1222.306274414063	-396.1376953125001	45.31830596923829	-1171.923095703125	-178.317123413086	59.5997886657715	-1197.174194335938	-186.8417053222657	60.8690757751465	-1238.60205078125	-309.3220214843751	100.6966857910157	-1144.783447265625	-367.4658203125001	732.8598022460939	-697.3926391601564	-338.0621948242188	673.5648803710939	-683.8444213867189	-304.2769165039063	670.8519287109376	-682.8547363281251	-372.5129089355469	601.0294799804689	-698.4104003906251	-376.5144958496094	533.6529541015626	-691.9649658203126	-314.0559387207032	497.3172302246095	-802.5308837890627	-318.7517700195313	406.5054931640626	-668.0972290039064	-382.6821594238282	327.7984313964844	-637.3931274414064	-335.7722167968751	324.0544433593751	-643.6591186523439	-315.2409667968751	275.0334167480469	-669.0979614257814	-375.2465209960938	97.52336120605472	-613.4035644531251	-321.0782470703126	94.82998657226564	-689.5791625976564	-412.917694091797	44.57239532470704	-677.0747680664064	-201.194808959961	60.37606430053712	-595.0435180664064	-216.0759582519532	61.43581390380861	-560.8444824218751	-245.7881774902344	41.59856414794923	-518.1332397460939	
4	0.015	-178.7297515869141	1821.8984375	-918.7058715820315	-321.3622741699219	1718.302856445313	-991.533630371094	-329.5812988281251	1712.794067382813	-846.1882324218752	-388.8152160644532	1574.48974609375	-925.5302734375002	-408.1194458007814	1241.463623046875	-925.7985839843752	-223.2705688476563	1520.406860351563	-923.4385986328127	-287.5096435546876	1547.595947265625	-1116.76513671875	-332.2582397460938	1402.169311523438	-1277.853149414063	-295.3198547363282	1366.317260742188	-1281.4775390625	-341.7712097167969	1349.823608398438	-1320.523315429688	-333.6108398437501	1287.686401367188	-1352.34326171875	-408.830535888672	1263.1103515625	-1315.57177734375	-296.5276794433594	1057.194946289063	-1153.44189453125	-248.9109344482422	1019.548889160156	-1206.716064453125	-245.1575622558594	1050.995727539063	-1100.80810546875	-264.1587524414063	1547.592651367188	-731.3812866210939	-332.1205139160157	1412.69921875	-559.8831787109376	-303.5723876953126	1371.397094726563	-558.1883544921876	-345.8595581054688	1357.659301757813	-517.5489501953126	-347.3995056152344	1292.052368164063	-489.2190551757814	-428.2347717285157	1274.826049804688	-523.4159545898439	-326.1643676757813	1062.656860351563	-677.2680053710939	-267.2268371582032	1036.362915039063	-630.6262817382814	-269.2850646972657	1068.545654296875	-725.4016723632814	-209.8262786865235	1037.023071289063	-1056.666748046875	-220.4756317138672	1052.29296875	-775.477722167969	-419.1386108398439	1128.949584960938	-922.2697753906252	-422.5675659179689	1097.922607421875	-951.3542480468752	-428.5106201171876	1097.153930664063	-895.9523925781252	-317.1849975585938	837.5083618164065	-1136.040405273438	-299.9812927246094	755.4246215820314	-1146.32177734375	-252.7695465087891	749.8876953125001	-1141.046020507813	-338.1128234863282	707.4712524414064	-1138.540649414063	-332.1744995117188	558.8035278320314	-1136.411865234375	-311.8692626953126	511.2124328613282	-1013.794860839844	-292.5017700195313	336.2681579589844	-1129.1953125	-335.1595458984376	306.4699707031251	-1202.896118164063	-298.0740966796876	298.8996887207032	-1175.886474609375	-294.5394897460938	213.2341918945313	-1164.733032226563	-355.5559082031251	101.6113815307617	-1222.331298828125	-396.1258544921876	45.29900741577149	-1171.914184570313	-178.2679901123047	59.58536529541017	-1197.119140625	-186.8829498291016	60.81860733032228	-1238.619873046875	-309.3349304199219	100.6940383911133	-1144.770385742188	-367.6268310546876	732.8747558593751	-697.3736572265626	-338.1910095214844	673.5539550781251	-683.8845825195314	-304.3876953125001	670.8610229492189	-682.8288574218751	-372.6397705078126	601.0028686523439	-698.3953247070314	-376.6188964843751	533.6506958007814	-691.9379882812501	-314.1642456054688	497.302947998047	-802.5371704101565	-318.8226623535157	406.4783935546876	-668.0777587890626	-382.7297668457032	327.7915344238282	-637.3663940429689	-335.8231811523438	324.0189514160157	-643.6394653320314	-315.3122253417969	275.0675048828126	-669.0830078125001	-375.2330017089844	97.50052642822268	-613.4326171875001	-321.0739440917969	94.78555297851564	-689.5575561523439	-412.9110717773439	44.57949447631837	-677.0784912109376	-201.2603302001954	60.39664840698244	-595.0272216796876	-216.0965728759766	61.43119430541994	-560.8477172851564	-245.7901153564454	41.59443283081055	-518.1232910156251	
